PathFileType	4	(X/Y/Z)	/Users/nbianco/Projects/AddBiomechanics/hamner/residuals/addbio/results/subject01/results/MarkerData/run300.trc
DataRate	CameraRate	NumFrames	NumMarkers	Units	OrigDataRate	OrigDataStartFrame	OrigNumFrames
100	100	8	42	m	100	0	216
Frame#	Time	C7			CLAV			LACR			LASI			LCAL			LFAradius			LFAsuperior			LFAulna			LLEL			LMEL			LMT5			LPSI			LTB1			LTB2			LTB3			LTH1			LTH2			LTH3			LTOE			LUA1			LUA2			LUA3			RACR			RASI			RCAL			RFAradius			RFAsuperior			RFAulna			RLEL			RMEL			RMT5			RPSI			RTB1			RTB2			RTB3			RTH1			RTH2			RTH3			RTOE			RUA1			RUA2			RUA3		
		X1	Y1	Z1	X2	Y2	Z2	X3	Y3	Z3	X4	Y4	Z4	X5	Y5	Z5	X6	Y6	Z6	X7	Y7	Z7	X8	Y8	Z8	X9	Y9	Z9	X10	Y10	Z10	X11	Y11	Z11	X12	Y12	Z12	X13	Y13	Z13	X14	Y14	Z14	X15	Y15	Z15	X16	Y16	Z16	X17	Y17	Z17	X18	Y18	Z18	X19	Y19	Z19	X20	Y20	Z20	X21	Y21	Z21	X22	Y22	Z22	X23	Y23	Z23	X24	Y24	Z24	X25	Y25	Z25	X26	Y26	Z26	X27	Y27	Z27	X28	Y28	Z28	X29	Y29	Z29	X30	Y30	Z30	X31	Y31	Z31	X32	Y32	Z32	X33	Y33	Z33	X34	Y34	Z34	X35	Y35	Z35	X36	Y36	Z36	X37	Y37	Z37	X38	Y38	Z38	X39	Y39	Z39	X40	Y40	Z40	X41	Y41	Z41	X42	Y42	Z42

1	0.52	0.914032	1.58558	-0.344817	1.03329	1.5205	-0.30021	0.985068	1.57411	-0.493431	1.01129	1.06502	-0.467918	0.38373	0.416878	-0.414617	1.04795	1.28287	-0.512267	0.90969	1.24859	-0.635466	1.05904	1.21508	-0.537801	0.839476	1.2877	-0.659287	0.805685	1.26356	-0.57663	0.375224	0.203499	-0.454571	0.851827	1.13427	-0.421393	0.745558	0.452616	-0.403144	0.612424	0.469434	-0.464464	0.545288	0.364503	-0.412725	0.945612	0.930136	-0.517994	0.827713	0.805074	-0.484037	0.843013	0.661162	-0.467177	0.429224	0.19154	-0.356884	0.893326	1.48632	-0.565803	0.92334	1.4139	-0.59532	0.853223	1.35492	-0.63571	0.964581	1.55081	-0.1774	0.988818	1.08414	-0.224021	1.02416	0.0964403	-0.306616	0.916503	1.18723	-0.110266	0.763455	1.26343	-0.0488551	0.8753	1.14654	-0.0728525	0.688929	1.34174	-0.0643404	0.701034	1.31216	-0.149946	1.23008	0.0994926	-0.260324	0.835175	1.13413	-0.307916	1.11679	0.443838	-0.281504	1.04428	0.384063	-0.216213	1.11639	0.256236	-0.303235	0.925215	0.966816	-0.169349	0.91949	0.809672	-0.195926	1.00569	0.677078	-0.206939	1.2559	0.158181	-0.349296	0.82536	1.49813	-0.142268	0.840841	1.43233	-0.0984698	0.743716	1.38957	-0.0790997
2	0.53	0.913865	1.57935	-0.343964	1.03335	1.51353	-0.300178	0.983907	1.56816	-0.492672	1.00971	1.05853	-0.468898	0.392996	0.432034	-0.41698	1.04618	1.26976	-0.512143	0.906181	1.24112	-0.635364	1.05549	1.20265	-0.539939	0.836883	1.28243	-0.658054	0.802849	1.25853	-0.575542	0.373748	0.220537	-0.461961	0.850576	1.12729	-0.42142	0.756693	0.446205	-0.405481	0.624697	0.471478	-0.465908	0.551614	0.370013	-0.416408	0.946946	0.924225	-0.518194	0.833438	0.795122	-0.484622	0.853132	0.652093	-0.469158	0.427072	0.203374	-0.364728	0.891578	1.48083	-0.564811	0.921244	1.4083	-0.59452	0.851013	1.34955	-0.63473	0.965683	1.54335	-0.176881	0.987977	1.07821	-0.224135	1.0118	0.0929909	-0.310344	0.922757	1.17898	-0.10954	0.769593	1.25308	-0.0458146	0.882542	1.13763	-0.0716724	0.693881	1.33044	-0.0601724	0.705092	1.30129	-0.145808	1.21663	0.0854845	-0.264634	0.834155	1.12703	-0.308139	1.11254	0.43506	-0.283222	1.0384	0.37659	-0.21858	1.10832	0.24744	-0.30536	0.922734	0.959763	-0.169042	0.918478	0.802396	-0.197831	1.00547	0.670753	-0.209286	1.24498	0.14441	-0.353356	0.827561	1.48921	-0.1385	0.844184	1.42294	-0.0963105	0.74799	1.37881	-0.0754183
3	0.54	0.913435	1.57199	-0.343263	1.0334	1.50567	-0.300139	0.982358	1.56097	-0.492132	1.00798	1.05141	-0.469845	0.40472	0.445396	-0.417981	1.04377	1.25513	-0.512337	0.901977	1.23254	-0.635309	1.05114	1.18882	-0.542398	0.833666	1.27614	-0.656698	0.799827	1.25232	-0.574486	0.376109	0.236557	-0.469438	0.849224	1.11972	-0.421386	0.769197	0.439483	-0.408861	0.638656	0.472558	-0.468035	0.560277	0.374619	-0.420068	0.947838	0.917931	-0.518683	0.839134	0.784703	-0.485099	0.863838	0.64262	-0.472025	0.428606	0.213853	-0.372851	0.889341	1.47413	-0.563655	0.918861	1.4014	-0.593612	0.848402	1.34298	-0.633465	0.966761	1.53488	-0.176285	0.987175	1.0704	-0.224932	0.994402	0.0919564	-0.314458	0.929578	1.1694	-0.108663	0.776465	1.24129	-0.0423191	0.890483	1.12739	-0.0703153	0.699586	1.31774	-0.0553675	0.70975	1.28899	-0.141072	1.19751	0.0706159	-0.267253	0.833219	1.11883	-0.308198	1.10743	0.424848	-0.284388	1.03088	0.368311	-0.220929	1.09735	0.237406	-0.307801	0.920698	0.951544	-0.169445	0.916646	0.794303	-0.200469	1.00449	0.66336	-0.211162	1.22965	0.125402	-0.357353	0.829816	1.47904	-0.134643	0.847914	1.41241	-0.0938814	0.752795	1.36672	-0.0713118
4	0.55	0.912716	1.56349	-0.3426	1.03351	1.497	-0.30008	0.98042	1.55265	-0.491879	1.00622	1.04377	-0.470841	0.418264	0.456749	-0.417768	1.04064	1.239	-0.512883	0.897092	1.22287	-0.635359	1.04589	1.17363	-0.545081	0.829812	1.26885	-0.655301	0.796657	1.245	-0.5735	0.382395	0.25115	-0.476822	0.84782	1.11159	-0.421435	0.782988	0.432501	-0.413417	0.65396	0.472887	-0.470727	0.57105	0.378328	-0.42385	0.948383	0.911105	-0.519173	0.844827	0.773819	-0.485357	0.875089	0.632825	-0.475345	0.434219	0.222899	-0.381209	0.886572	1.46617	-0.5623	0.916117	1.39322	-0.59265	0.84534	1.33522	-0.631942	0.967888	1.52546	-0.175498	0.986307	1.06112	-0.226196	0.972221	0.0927342	-0.319112	0.936966	1.15852	-0.107643	0.784126	1.22817	-0.0384435	0.899079	1.11584	-0.0688197	0.706109	1.30376	-0.049941	0.715026	1.27536	-0.135732	1.17348	0.057965	-0.26831	0.832233	1.10996	-0.308154	1.10204	0.414094	-0.285926	1.02272	0.360135	-0.223681	1.08352	0.227212	-0.31141	0.919292	0.9424	-0.170566	0.914208	0.785838	-0.203006	1.00315	0.655115	-0.212442	1.20982	0.104644	-0.361092	0.832107	1.46768	-0.130774	0.85205	1.40076	-0.0911918	0.758175	1.35336	-0.0668051
5	0.56	0.911777	1.55406	-0.341757	1.03381	1.48773	-0.300016	0.97811	1.54363	-0.491946	1.00434	1.03573	-0.472007	0.43301	0.465901	-0.416646	1.03675	1.22142	-0.513831	0.891519	1.21223	-0.635537	1.03966	1.15707	-0.547992	0.825295	1.26068	-0.653945	0.793144	1.23686	-0.57247	0.392505	0.263833	-0.483874	0.846255	1.10301	-0.421702	0.79794	0.42544	-0.418847	0.670324	0.472612	-0.473756	0.583703	0.381144	-0.427765	0.94865	0.903592	-0.519253	0.850644	0.762452	-0.485398	0.886738	0.622885	-0.478581	0.444142	0.2304	-0.389725	0.88327	1.45704	-0.560753	0.912899	1.38392	-0.591705	0.841756	1.32638	-0.630271	0.969142	1.51533	-0.174398	0.985074	1.05132	-0.227278	0.946323	0.0942924	-0.323826	0.944926	1.14638	-0.106534	0.792593	1.21389	-0.0343166	0.90828	1.10305	-0.067266	0.713534	1.28868	-0.0440319	0.720962	1.26052	-0.129883	1.14622	0.0508237	-0.26864	0.830846	1.10109	-0.308134	1.09696	0.404413	-0.289225	1.01548	0.353675	-0.22718	1.06716	0.218703	-0.316635	0.918248	0.932979	-0.172041	0.911837	0.777646	-0.204617	1.00221	0.646662	-0.213414	1.1859	0.0878193	-0.364359	0.834386	1.45525	-0.126825	0.856662	1.38801	-0.0883239	0.764261	1.33874	-0.0619891
6	0.57	0.910887	1.54437	-0.340538	1.03438	1.47827	-0.299982	0.975492	1.53449	-0.49226	1.00195	1.02757	-0.473392	0.448854	0.472742	-0.415034	1.03211	1.2025	-0.51522	0.885182	1.20079	-0.635765	1.03244	1.13918	-0.551413	0.820098	1.25193	-0.652622	0.788954	1.22834	-0.571124	0.406179	0.274231	-0.490469	0.844169	1.0943	-0.422193	0.813995	0.418643	-0.424309	0.687747	0.471708	-0.476944	0.598195	0.383028	-0.431543	0.948694	0.895517	-0.518786	0.856808	0.750785	-0.485439	0.898653	0.613143	-0.481459	0.458031	0.236201	-0.398165	0.87954	1.44718	-0.559084	0.909144	1.37392	-0.590802	0.837598	1.31678	-0.628543	0.970495	1.50492	-0.173001	0.983134	1.04207	-0.227553	0.918396	0.0959396	-0.3276	0.953497	1.13301	-0.105456	0.80179	1.19847	-0.0300629	0.91808	1.08909	-0.0657826	0.721923	1.27267	-0.0379491	0.727658	1.24465	-0.123808	1.11755	0.0492863	-0.269286	0.828667	1.09271	-0.30832	1.09189	0.397013	-0.294798	1.0098	0.350055	-0.231118	1.04891	0.213153	-0.322522	0.916771	0.92415	-0.173251	0.910185	0.770105	-0.205412	1.00213	0.638773	-0.214725	1.15909	0.0783385	-0.367024	0.836654	1.44189	-0.122484	0.861895	1.37424	-0.0855112	0.771267	1.32288	-0.0570794
7	0.58	0.910412	1.53541	-0.338964	1.03515	1.46915	-0.299994	0.972716	1.52578	-0.492656	0.998638	1.01976	-0.474906	0.465991	0.47717	-0.413424	1.0267	1.18243	-0.517003	0.877981	1.18884	-0.635889	1.0243	1.1202	-0.555667	0.814295	1.24307	-0.651201	0.784027	1.21993	-0.569211	0.423226	0.281991	-0.496632	0.841174	1.08597	-0.422792	0.831254	0.412564	-0.428982	0.706322	0.470173	-0.480207	0.614625	0.3839	-0.434827	0.948632	0.887472	-0.518128	0.86348	0.739435	-0.485738	0.910887	0.604198	-0.48404	0.475164	0.240097	-0.406075	0.875583	1.43731	-0.557354	0.904892	1.36395	-0.589911	0.83287	1.307	-0.626638	0.971785	1.49487	-0.171519	0.980429	1.03388	-0.226943	0.889888	0.09751	-0.329795	0.962794	1.11854	-0.104582	0.811682	1.18192	-0.0257934	0.928555	1.07415	-0.06454	0.731346	1.25594	-0.032051	0.735308	1.22804	-0.117882	1.08855	0.0504717	-0.270531	0.825617	1.08493	-0.308855	1.08559	0.391556	-0.301556	1.00436	0.348753	-0.234712	1.0293	0.210143	-0.327405	0.914264	0.916476	-0.17386	0.909152	0.763188	-0.206243	1.00251	0.631786	-0.216745	1.13089	0.0750848	-0.368982	0.839147	1.42778	-0.117494	0.867905	1.35977	-0.0830846	0.779368	1.30599	-0.0523771
8	0.59	0.910522	1.52793	-0.337355	1.03589	1.46087	-0.300063	0.97002	1.51784	-0.492969	0.994398	1.01284	-0.476359	0.484409	0.479083	-0.41227	1.02046	1.1616	-0.519	0.869962	1.17688	-0.635758	1.01517	1.10077	-0.56059	0.80812	1.23467	-0.649437	0.778762	1.21207	-0.566646	0.443597	0.28672	-0.502423	0.837268	1.07853	-0.423318	0.849932	0.407665	-0.43262	0.725964	0.468187	-0.483431	0.63305	0.383696	-0.437414	0.948532	0.880383	-0.517909	0.870599	0.729345	-0.48635	0.923668	0.596798	-0.486574	0.494918	0.241876	-0.412906	0.871661	1.42827	-0.555579	0.90031	1.35478	-0.588934	0.827674	1.29777	-0.624265	0.972824	1.48572	-0.170259	0.977322	1.02668	-0.225821	0.861342	0.0989549	-0.330614	0.973037	1.10332	-0.104109	0.822534	1.16461	-0.0216772	0.939889	1.0586	-0.0637083	0.741946	1.23886	-0.0265452	0.744194	1.2111	-0.112351	1.05946	0.0514044	-0.271782	0.822095	1.07771	-0.309675	1.07673	0.386295	-0.307647	0.996596	0.347777	-0.237436	1.00837	0.207893	-0.33039	0.910927	0.909928	-0.174105	0.907836	0.75675	-0.207779	1.00208	0.625408	-0.219233	1.10223	0.0744629	-0.370181	0.842402	1.41332	-0.112185	0.874702	1.34533	-0.0812371	0.788574	1.28874	-0.0481079
